<!-- sample rectangle -->
<svg width="480" height="180" viewBox="0 0 480 180" fill="none" xmlns="http://www.w3.org/2000/svg">
<path d="M89.1205 3.12477H383.062V42.1844H386.189V0H85.9935V42.1844H89.1205V3.12477Z" fill="white"/>
    <path d="M89.1205 135.928H85.9935V179.674H386.189V135.928H383.062V176.55H89.1205V135.928Z" fill="white"/>

    <path d="M23.0762 84.8989V115.031L32.2435 115.999V118.582H0V115.999L9.16726 115.031V50.2475L0 49.0637V46.5886H53.7391V61.9773H50.3672L46.3631 50.5703L23.0762 50.2475V81.0249H43.6235L46.89 73.0615H49.9457V93.0775H46.7846L43.6235 84.8989H23.0762Z" fill="white"/>
<path d="M108.045 112.018C103.128 117.183 96.4194 119.766 87.9195 119.766C79.4196 119.766 72.711 117.183 67.7937 112.018C62.8764 106.852 60.4178 100.288 60.4178 92.3243C60.4178 84.3609 62.8764 77.7965 67.7937 72.631C72.711 67.4656 79.4196 64.8829 87.9195 64.8829C96.4194 64.8829 103.128 67.4656 108.045 72.631C112.963 77.7965 115.421 84.3609 115.421 92.3243C115.421 100.288 112.963 106.852 108.045 112.018ZM75.0643 92.3243C75.0643 108.897 79.3494 117.183 87.9195 117.183C96.4897 117.183 100.775 108.897 100.775 92.3243C100.775 84.2174 99.8264 78.0834 97.9298 73.9224C96.0331 69.6896 92.6964 67.5732 87.9195 67.5732C83.1427 67.5732 79.806 69.6896 77.9093 73.9224C76.0126 78.0834 75.0643 84.2174 75.0643 92.3243Z" fill="white"/>
<path d="M171.227 112.018C166.309 117.183 159.601 119.766 151.101 119.766C142.601 119.766 135.892 117.183 130.975 112.018C126.058 106.852 123.599 100.288 123.599 92.3243C123.599 84.3609 126.058 77.7965 130.975 72.631C135.892 67.4656 142.601 64.8829 151.101 64.8829C159.601 64.8829 166.309 67.4656 171.227 72.631C176.144 77.7965 178.603 84.3609 178.603 92.3243C178.603 100.288 176.144 106.852 171.227 112.018ZM138.246 92.3243C138.246 108.897 142.531 117.183 151.101 117.183C159.671 117.183 163.956 108.897 163.956 92.3243C163.956 84.2174 163.008 78.0834 161.111 73.9224C159.214 69.6896 155.878 67.5732 151.101 67.5732C146.324 67.5732 142.987 69.6896 141.091 73.9224C139.194 78.0834 138.246 84.2174 138.246 92.3243Z" fill="white"/>
<path d="M209.119 120.196C202.726 120.196 197.423 118.008 193.208 113.632C188.993 109.255 186.886 102.655 186.886 93.8308C186.886 85.0065 189.38 78.0476 194.367 72.9539C199.425 67.8602 206.133 65.3133 214.493 65.3133C218.848 65.3133 222.958 66.3536 226.821 68.4341V41.1003L217.759 40.4546V37.7643L240.309 35.9349V116.107L249.265 116.537L249.371 119.012L227.348 120.304L227.559 110.619H226.927C225.17 113.632 222.677 115.999 219.445 117.721C216.214 119.371 212.772 120.196 209.119 120.196ZM226.716 102.009V72.4158C223.906 69.7613 220.323 68.4341 215.968 68.4341C210.419 68.4341 206.625 71.0527 204.588 76.2899C202.902 80.8814 202.059 86.7283 202.059 93.8308C202.059 109.112 205.396 116.752 212.069 116.752C216.003 116.752 219.41 115.031 222.29 111.587C225.241 108.143 226.716 104.951 226.716 102.009Z" fill="white"/>
<path d="M254.514 62.5154V46.6962L315.84 46.481V49.817L270.32 113.094L308.358 113.309L312.046 101.471H315.524V117.183L253.039 117.398V114.385L298.98 50.7855L261.679 50.5703L257.991 62.5154H254.514Z" fill="white"/>
<path d="M358.833 81.0249C358.833 72.2723 355.847 67.896 349.876 67.896C343.624 67.896 339.831 73.4919 338.496 84.6837H358.622C358.762 83.2489 358.833 82.0293 358.833 81.0249ZM348.928 119.766C341.411 119.766 335.3 117.255 330.593 112.233C325.957 107.211 323.639 100.575 323.639 92.3243C323.639 84.0739 326.062 77.4377 330.909 72.4158C335.827 67.3938 342.044 64.8829 349.56 64.8829C357.076 64.8829 362.696 66.5329 366.419 69.8331C370.142 73.0615 372.004 77.5812 372.004 83.3923C372.004 85.0424 371.864 86.7642 371.583 88.5578H338.18V92.3243C338.18 100.359 339.163 106.458 341.13 110.619C343.097 114.708 346.048 116.752 349.982 116.752C353.986 116.752 357.603 115.927 360.835 114.277C364.136 112.556 366.7 110.152 368.527 107.067C370.072 107.569 370.845 108.323 370.845 109.327C370.845 111.121 369.194 113.201 365.892 115.569C364.277 116.717 361.959 117.721 358.938 118.582C355.988 119.371 352.651 119.766 348.928 119.766Z" fill="white"/>
<path d="M398.993 78.765C400.187 74.8909 402.365 71.5908 405.526 68.8645C408.757 66.1383 411.673 64.7752 414.272 64.7752C416.941 64.7752 418.732 65.4568 419.646 66.8199C420.559 68.1113 421.015 69.1874 421.015 70.0483C421.015 72.9897 419.962 75.1061 417.854 76.3975C416.449 75.2496 414.342 74.6757 411.532 74.6757C408.792 74.6757 406.053 75.5725 403.313 77.366C400.574 79.0878 399.204 80.989 399.204 83.0695V115.461L408.687 116.107V118.582H379.289V116.107L386.243 115.569V69.6179L377.708 69.1874V66.7123L399.204 65.5285L398.571 78.765H398.993Z" fill="white"/>
<path d="M472.624 112.018C467.707 117.183 460.998 119.766 452.498 119.766C443.998 119.766 437.29 117.183 432.372 112.018C427.455 106.852 424.996 100.288 424.996 92.3243C424.996 84.3609 427.455 77.7965 432.372 72.631C437.29 67.4656 443.998 64.8829 452.498 64.8829C460.998 64.8829 467.707 67.4656 472.624 72.631C477.541 77.7965 480 84.3609 480 92.3243C480 100.288 477.541 106.852 472.624 112.018ZM439.643 92.3243C439.643 108.897 443.928 117.183 452.498 117.183C461.068 117.183 465.353 108.897 465.353 92.3243C465.353 84.2174 464.405 78.0834 462.508 73.9224C460.612 69.6896 457.275 67.5732 452.498 67.5732C447.721 67.5732 444.385 69.6896 442.488 73.9224C440.591 78.0834 439.643 84.2174 439.643 92.3243Z" fill="white"/>
</svg>
